<?xml version="1.0" encoding="iso-8859-1"?>
<!-- Uploaded to: SVG Repo, www.svgrepo.com, Generator: SVG Repo Mixer Tools -->
<svg fill="#000000" height="800px" width="800px" version="1.1" id="Layer_1" xmlns="http://www.w3.org/2000/svg" xmlns:xlink="http://www.w3.org/1999/xlink" 
	 viewBox="0 0 512.001 512.001" xml:space="preserve">
<g>
	<g>
		<g>
			<path d="M315.697,145.128c0,0.36,0.008,0.721,0.023,1.08h-27.048c-14.419,0-26.15,11.73-26.15,26.148
				c0,14.417,11.731,26.145,26.15,26.145h51.196c4.466,0,8.084-3.619,8.084-8.084s-3.618-8.084-8.084-8.084h-51.196
				c-5.504,0-9.981-4.475-9.981-9.977c0-5.503,4.478-9.979,9.981-9.979h37.625c2.903,0,5.583-1.556,7.023-4.078
				c1.438-2.521,1.415-5.62-0.063-8.119c-0.924-1.562-1.392-3.262-1.392-5.052c0-5.502,4.477-9.979,9.979-9.979h84.725
				c5.5,0,9.977,4.477,9.977,9.979c0,5.503-4.475,9.978-9.977,9.978h-37.629c-2.903,0-5.583,1.556-7.023,4.078
				c-1.438,2.521-1.415,5.62,0.063,8.119c0.923,1.562,1.392,3.262,1.392,5.053c0,5.502-4.475,9.977-9.977,9.977h-10.633
				c-4.466,0-8.084,3.618-8.084,8.084c0,4.466,3.618,8.084,8.084,8.084h10.633c14.417,0,26.145-11.729,26.145-26.145
				c0-0.361-0.008-0.721-0.023-1.081h27.052c14.417-0.001,26.145-11.73,26.145-26.146c0-14.418-11.729-26.148-26.145-26.148h-84.725
				C327.426,118.98,315.697,130.71,315.697,145.128z"/>
			<path d="M347.527,223.362h-68.01c-4.466,0-8.084,3.618-8.084,8.084c0,4.466,3.619,8.084,8.084,8.084h68.01
				c4.466,0,8.084-3.618,8.084-8.084C355.611,226.981,351.992,223.362,347.527,223.362z"/>
			<path d="M241.892,223.362c-4.466,0-8.084,3.618-8.084,8.084c0,4.466,3.618,8.084,8.084,8.084h11.473
				c4.466,0,8.084-3.618,8.084-8.084c0-4.466-3.618-8.084-8.084-8.084H241.892z"/>
			<path d="M506.498,371.547c-12.176-4.104-25.03-7.832-38.286-11.112v-9.136c0-4.466-3.618-8.084-8.084-8.084h-7.414v-24.322
				v-25.36v-16.236c0-4.466-3.618-8.084-8.084-8.084c-4.466,0-8.084,3.618-8.084,8.084v8.152H242.932
				c-4.466,0-8.084,3.618-8.084,8.084c0,4.465,3.618,8.084,8.084,8.084h193.614v9.191H197.698v-9.191h19.364
				c4.466,0,8.084-3.62,8.084-8.084c0-4.466-3.619-8.084-8.084-8.084h-19.364v-8.152c0-4.466-3.62-8.084-8.084-8.084
				c-4.466,0-8.084,3.618-8.084,8.084v16.236v25.36v24.322h-7.414c-4.466,0-8.084,3.618-8.084,8.084v10.798
				c-4.045,1.058-8.035,2.16-11.975,3.297c-0.154-0.025-0.307-0.05-0.461-0.074c2.168-3.797,3.405-8.188,3.405-12.856
				c0-13.671-10.6-24.912-24.011-25.937c-1.728-5.993-4.863-11.38-9.008-15.802v-60.568l25.991-11.965
				c4.056-1.866,5.83-6.668,3.963-10.723c-1.865-4.056-6.667-5.831-10.723-3.963l-19.232,8.853v-21.674
				c11.485-3.239,21.98-9.561,30.268-18.45c30.355-8.698,51.339-36.388,51.339-68.205c0-25.053-12.898-47.76-34.039-60.604
				c0.252-2.173,0.379-4.357,0.379-6.533C171.929,25.521,146.408,0,115.039,0C83.672,0,58.152,25.521,58.152,56.89
				c0,0.816,0.018,1.634,0.055,2.454c-18.717,5.214-32,22.188-32,42.358c0,12.966,5.654,25.078,15.364,33.392
				c-0.773,4.056-1.163,8.176-1.163,12.307c0,36.261,29.5,65.762,65.76,65.762c0.551,0,1.098-0.029,1.646-0.042v87.233
				c-3.848-1.282-7.952-1.979-12.203-1.979c-6.096,0-11.986,1.398-17.299,4.041c-7.499-16.042-23.743-26.8-42.179-26.8
				c-12.799,0-25.17,5.357-33.94,14.696c-1.409,1.498-2.192,3.477-2.192,5.533v70.668v100.021v37.381
				c0,4.466,3.619,8.084,8.084,8.084h495.832c4.466,0,8.084-3.619,8.084-8.084V379.208
				C512.001,375.738,509.785,372.655,506.498,371.547z M197.698,326.978h238.847v16.237H197.698V326.978z M182.2,368.369v-8.986
				h269.843v7.416v1.776H182.2V368.369z M107.813,122.275v28.696l-16.73-14.206c-3.405-2.893-8.506-2.474-11.394,0.929
				c-2.891,3.403-2.474,8.506,0.929,11.394l27.195,23.092v24.769c-0.549,0.019-1.096,0.046-1.647,0.046
				c-27.345,0-49.592-22.248-49.592-49.594c0-4.527,0.622-9.039,1.848-13.409c0.955-3.401-0.41-7.028-3.367-8.956
				c-7.941-5.178-12.681-13.901-12.681-23.333c0-14.309,11.161-26.488,25.408-27.727c2.272-0.197,4.356-1.346,5.737-3.163
				c1.38-1.817,1.928-4.132,1.51-6.375c-0.471-2.521-0.709-5.061-0.709-7.55c0.001-22.455,18.268-40.722,40.721-40.722
				c22.455,0,40.722,18.267,40.722,40.722c0,3.021-0.343,6.062-1.021,9.039c-0.829,3.637,0.939,7.366,4.276,9.031
				c18.753,9.346,30.404,28.147,30.404,49.067c0,25.228-17.079,47.093-41.532,53.173c-1.622,0.403-3.078,1.299-4.17,2.565
				c-5.408,6.268-12.207,10.998-19.736,13.903v-71.392c0-4.466-3.619-8.084-8.084-8.084S107.813,117.81,107.813,122.275z
				 M16.169,299.262c5.527-4.842,12.509-7.476,19.963-7.476c14.719,0,27.297,10.5,29.907,24.966
				c0.532,2.949,2.653,5.364,5.509,6.269c2.856,0.908,5.982,0.158,8.117-1.945c4.281-4.212,9.944-6.533,15.944-6.533
				c11.909,0,21.866,9.298,22.67,21.169c0.163,2.411,1.397,4.624,3.364,6.031c1.966,1.406,4.458,1.858,6.795,1.232
				c0.893-0.239,1.728-0.356,2.55-0.356c5.427,0,9.843,4.417,9.843,9.846c0,5.01-3.767,9.18-8.687,9.753
				c-16.622-2.103-33.553-3.56-50.685-4.362c-0.287-0.014-0.573-0.025-0.86-0.039c-6.414-0.292-12.856-0.493-19.319-0.6
				c-0.656-0.012-1.315-0.019-1.971-0.029c-3.116-0.043-6.236-0.072-9.362-0.072c-3.226,0-6.459,0.029-9.694,0.077
				c-1.01,0.014-2.019,0.038-3.03,0.057c-2.265,0.043-4.527,0.095-6.791,0.16c-1.131,0.032-2.258,0.068-3.388,0.107
				c-2.28,0.077-4.555,0.168-6.828,0.267c-0.983,0.044-1.966,0.082-2.947,0.129c-0.366,0.018-0.736,0.03-1.102,0.049V299.262z
				 M16.169,374.164c0.508-0.026,1.011-0.059,1.519-0.084c1.112-0.055,2.228-0.101,3.343-0.15c2.106-0.093,4.216-0.177,6.327-0.25
				c1.149-0.039,2.298-0.077,3.448-0.11c2.195-0.064,4.391-0.113,6.588-0.155c1.01-0.019,2.019-0.044,3.029-0.058
				c3.179-0.046,6.355-0.075,9.526-0.075c3.219,0,6.436,0.028,9.649,0.075c0.887,0.013,1.771,0.036,2.657,0.053
				c2.375,0.044,4.748,0.096,7.118,0.166c0.943,0.027,1.885,0.061,2.826,0.094c2.386,0.081,4.77,0.171,7.15,0.279
				c0.823,0.037,1.646,0.074,2.469,0.114c2.645,0.129,5.286,0.274,7.924,0.434c0.534,0.031,1.068,0.063,1.601,0.096
				c9.315,0.592,18.564,1.392,27.722,2.382c-44.808,16.976-80.102,39.271-102.897,64.985V374.164z M495.832,495.832L495.832,495.832
				H16.169v-27c0.177-0.285,0.348-0.569,0.528-0.854c0.341-0.538,0.692-1.075,1.046-1.609c0.462-0.7,0.928-1.398,1.413-2.093
				c0.232-0.335,0.471-0.669,0.707-1.004c0.664-0.932,1.337-1.864,2.04-2.791c0.024-0.03,0.047-0.063,0.07-0.093
				c22.893-30.121,66.033-56.721,121.554-74.864c0.37-0.12,0.737-0.243,1.107-0.362c1.451-0.47,2.916-0.929,4.383-1.387
				c0.824-0.257,1.645-0.514,2.473-0.766c1.149-0.351,2.308-0.696,3.466-1.042c3.735-1.107,7.51-2.187,11.347-3.223
				c0.009,0.031,0.024,0.061,0.033,0.093c0.106,0.379,0.235,0.745,0.391,1.099c0.024,0.053,0.051,0.105,0.075,0.156
				c0.165,0.352,0.35,0.694,0.564,1.015c0.009,0.014,0.015,0.027,0.023,0.04c0.219,0.327,0.467,0.632,0.73,0.922
				c0.045,0.051,0.088,0.101,0.136,0.15c0.262,0.278,0.542,0.536,0.842,0.773c0.049,0.039,0.098,0.073,0.148,0.112
				c0.312,0.235,0.635,0.454,0.979,0.643c0.006,0.003,0.014,0.009,0.021,0.012c0.345,0.19,0.709,0.345,1.082,0.482
				c0.069,0.025,0.135,0.052,0.204,0.074c0.365,0.123,0.743,0.221,1.129,0.292c0.07,0.013,0.143,0.022,0.215,0.032
				c0.406,0.064,0.819,0.106,1.242,0.106h7.414v22.208c0,4.466,3.619,8.084,8.084,8.084c4.465,0,8.084-3.619,8.084-8.084v-22.209
				h238.847v22.208c0,4.466,3.618,8.084,8.084,8.084c4.466,0,8.084-3.618,8.084-8.084v-22.208h7.414
				c0.275,0,0.545-0.014,0.814-0.041c0.091-0.01,0.179-0.027,0.269-0.04c0.175-0.023,0.349-0.044,0.52-0.079
				c0.107-0.022,0.209-0.053,0.315-0.079c0.15-0.036,0.301-0.069,0.448-0.114c0.11-0.033,0.215-0.075,0.322-0.113
				c0.137-0.049,0.276-0.095,0.41-0.151c0.11-0.044,0.213-0.098,0.32-0.148c0.126-0.059,0.253-0.116,0.377-0.182
				c0.107-0.057,0.207-0.12,0.312-0.182c0.116-0.068,0.234-0.136,0.347-0.21c0.101-0.068,0.197-0.14,0.294-0.21
				c0.109-0.08,0.218-0.156,0.321-0.241c0.095-0.077,0.185-0.158,0.276-0.239c0.1-0.088,0.199-0.175,0.294-0.267
				c0.087-0.085,0.169-0.175,0.253-0.264c0.091-0.097,0.181-0.193,0.266-0.293c0.08-0.094,0.154-0.191,0.23-0.288
				c0.081-0.104,0.162-0.209,0.237-0.317c0.07-0.101,0.136-0.205,0.203-0.309c0.07-0.111,0.141-0.224,0.206-0.34
				c0.061-0.108,0.116-0.217,0.172-0.328c0.061-0.119,0.12-0.239,0.175-0.361c0.051-0.112,0.096-0.226,0.141-0.342
				c0.05-0.126,0.097-0.253,0.14-0.383c0.039-0.117,0.074-0.236,0.109-0.355c0.038-0.133,0.072-0.266,0.103-0.402
				c0.028-0.121,0.053-0.244,0.074-0.365c0.025-0.139,0.046-0.279,0.065-0.421c0.015-0.123,0.028-0.247,0.038-0.373
				c0.005-0.069,0.018-0.135,0.022-0.204c9.485,2.427,18.731,5.089,27.632,7.955V495.832z"/>
			<path d="M240.968,103.764h77.099c14.353,0,26.031-11.676,26.031-26.028c0.001-14.352-11.678-26.029-26.031-26.029h-77.099
				c-14.352,0-26.029,11.677-26.029,26.029C214.939,92.088,226.616,103.764,240.968,103.764z M240.968,67.876h77.099
				c5.439,0,9.863,4.423,9.863,9.861c0.001,5.436-4.424,9.859-9.863,9.859h-77.099c-5.438,0-9.861-4.424-9.861-9.859
				C231.108,72.299,235.531,67.876,240.968,67.876z"/>
		</g>
	</g>
</g>
</svg>